<?xml version="1.0" encoding="UTF-8" standalone="no"?>
<!-- Created with Inkscape (http://www.inkscape.org/) -->

<svg
   xmlns:dc="http://purl.org/dc/elements/1.1/"
   xmlns:cc="http://creativecommons.org/ns#"
   xmlns:rdf="http://www.w3.org/1999/02/22-rdf-syntax-ns#"
   xmlns:svg="http://www.w3.org/2000/svg"
   xmlns="http://www.w3.org/2000/svg"
   xmlns:sodipodi="http://sodipodi.sourceforge.net/DTD/sodipodi-0.dtd"
   xmlns:inkscape="http://www.inkscape.org/namespaces/inkscape"
   width="128"
   height="128"
   viewBox="0 0 33.866666 33.866668"
   version="1.1"
   id="svg8"
   inkscape:version="0.92.5 (2060ec1f9f, 2020-04-08)"
   sodipodi:docname="icon.svg"
   inkscape:export-filename="/home/lmb/Projects/zeka-vs-code/images/icon.png"
   inkscape:export-xdpi="96"
   inkscape:export-ydpi="96">
  <defs
     id="defs2" />
  <sodipodi:namedview
     id="base"
     pagecolor="#ffffff"
     bordercolor="#666666"
     borderopacity="1.0"
     inkscape:pageopacity="0.0"
     inkscape:pageshadow="2"
     inkscape:zoom="5.6"
     inkscape:cx="65.023116"
     inkscape:cy="78.126703"
     inkscape:document-units="px"
     inkscape:current-layer="layer1"
     showgrid="false"
     units="px"
     inkscape:window-width="1920"
     inkscape:window-height="1027"
     inkscape:window-x="0"
     inkscape:window-y="0"
     inkscape:window-maximized="1" />
  <metadata
     id="metadata5">
    <rdf:RDF>
      <cc:Work
         rdf:about="">
        <dc:format>image/svg+xml</dc:format>
        <dc:type
           rdf:resource="http://purl.org/dc/dcmitype/StillImage" />
        <dc:title></dc:title>
      </cc:Work>
    </rdf:RDF>
  </metadata>
  <g
     inkscape:label="Layer 1"
     inkscape:groupmode="layer"
     id="layer1"
     transform="translate(0,-263.13332)">
    <g
       id="g829"
       transform="matrix(0.89441442,0,0,0.93618748,1.5935273,17.721401)"
       style="stroke-width:1.09282136">
      <rect
         rx="1.4771694"
         transform="rotate(9.4887723)"
         ry="1.4147677"
         y="259.34445"
         x="51.44268"
         height="28.442707"
         width="23.340031"
         id="rect815"
         style="opacity:1;vector-effect:none;fill:#f9fcba;fill-opacity:1;stroke:#e6ec68;stroke-width:0.28323558;stroke-linecap:round;stroke-linejoin:round;stroke-miterlimit:4;stroke-dasharray:none;stroke-dashoffset:0;stroke-opacity:1" />
      <rect
         style="opacity:1;vector-effect:none;fill:#f9fcba;fill-opacity:1;stroke:#e6ec68;stroke-width:0.28323558;stroke-linecap:round;stroke-linejoin:round;stroke-miterlimit:4;stroke-dasharray:none;stroke-dashoffset:0;stroke-opacity:1"
         id="rect819"
         width="23.340031"
         height="28.442707"
         x="84.332321"
         y="249.60626"
         ry="1.4180845"
         transform="rotate(16.493287)"
         rx="1.4734217" />
      <rect
         rx="1.4669627"
         transform="rotate(24.626291)"
         ry="1.4239166"
         y="233.37119"
         x="120.69085"
         height="28.442707"
         width="23.340031"
         id="rect821"
         style="opacity:1;vector-effect:none;fill:#f9fcba;fill-opacity:1;stroke:#e6ec68;stroke-width:0.28323558;stroke-linecap:round;stroke-linejoin:round;stroke-miterlimit:4;stroke-dasharray:none;stroke-dashoffset:0;stroke-opacity:1" />
      <rect
         style="opacity:1;vector-effect:none;fill:#f9fcba;fill-opacity:1;stroke:#e6ec68;stroke-width:0.28323558;stroke-linecap:round;stroke-linejoin:round;stroke-miterlimit:4;stroke-dasharray:none;stroke-dashoffset:0;stroke-opacity:1"
         id="rect823"
         width="23.340031"
         height="28.442707"
         x="154.34833"
         y="212.18398"
         ry="1.4314828"
         transform="rotate(32.749536)"
         rx="1.458823" />
    </g>
    <g
       id="g1019"
       transform="translate(1.3551501e-7,1.3678357e-6)">
      <g
         id="flowRoot831"
         style="font-style:normal;font-variant:normal;font-weight:normal;font-stretch:normal;font-size:40px;line-height:1.25;font-family:'Bitstream Vera Serif';-inkscape-font-specification:'Bitstream Vera Serif, Normal';font-variant-ligatures:normal;font-variant-caps:normal;font-variant-numeric:normal;font-feature-settings:normal;text-align:start;letter-spacing:0px;word-spacing:0px;writing-mode:lr-tb;text-anchor:start;fill:#000000;fill-opacity:1;stroke:#878787;stroke-width:0.53256893;stroke-opacity:1"
         transform="matrix(0.49507983,0,0,0.49853776,-3.5840417,252.58974)"
         aria-label="ZK">
        <path
           id="path992"
           style="font-style:normal;font-variant:normal;font-weight:normal;font-stretch:normal;font-size:40px;font-family:'Noto Serif';-inkscape-font-specification:'Noto Serif, Normal';font-variant-ligatures:normal;font-variant-caps:normal;font-variant-numeric:normal;font-feature-settings:normal;text-align:start;writing-mode:lr-tb;text-anchor:start;stroke:#f3f3f3;stroke-width:0.53256893;stroke-opacity:1"
           d="m 16.082578,69.395007 v -1.6 l 15,-24.96 h -8.68 q -1.76,0 -2.44,1 -0.68,0.96 -0.84,2.28 l -0.2,1.72 h -2.08 l 0.2,-7 h 18.96 v 1.64 l -15.04,24.92 h 10.08 q 1.8,0 2.48,-0.96 0.68,-1 0.84,-2.32 l 0.2,-1.72 h 2.08 l -0.2,7 z"
           inkscape:connector-curvature="0" />
        <path
           id="path994"
           style="font-style:normal;font-variant:normal;font-weight:normal;font-stretch:normal;font-size:40px;font-family:'Noto Serif';-inkscape-font-specification:'Noto Serif, Normal';font-variant-ligatures:normal;font-variant-caps:normal;font-variant-numeric:normal;font-feature-settings:normal;text-align:start;writing-mode:lr-tb;text-anchor:start;stroke:#f3f3f3;stroke-width:0.53256893;stroke-opacity:1"
           d="m 39.84254,69.395007 v -1.68 h 0.52 q 1.32,0 2.28,-0.44 1,-0.48 1,-2.24 v -19.8 q 0,-1.76 -1,-2.24 -0.96,-0.48 -2.28,-0.48 h -0.52 v -1.68 h 11.64 v 1.68 h -0.52 q -1.36,0 -2.32,0.52 -0.96,0.48 -0.96,2.36 v 11.28 l 8.28,-9.48 q 1.28,-1.48 1.72,-2.36 0.48,-0.92 0.48,-1.48 0,-0.52 -0.48,-0.68 -0.48,-0.2 -1.48,-0.2 v -1.64 h 8.84 v 1.64 q -1.36,0 -2.6,1 -1.2,1 -2.76,2.76 l -5.8,6.52 8.44,11.76 q 1.16,1.56 2.2,2.4 1.08,0.8 2.2,0.8 h 0.08 v 1.68 h -0.44 q -2,0 -3.32,-0.16 -1.28,-0.16 -2.16,-0.56 -0.84,-0.4 -1.52,-1.08 -0.64,-0.72 -1.4,-1.8 l -6.88,-9.88 -3.4,2.76 v 6.16 q 0,1.88 0.96,2.4 0.96,0.48 2.32,0.48 h 0.52 v 1.68 z"
           inkscape:connector-curvature="0" />
      </g>
    </g>
    <flowRoot
       xml:space="preserve"
       id="flowRoot1021"
       style="fill:black;fill-opacity:1;stroke:none;font-family:sans-serif;font-style:normal;font-weight:normal;font-size:40px;line-height:1.25;letter-spacing:0px;word-spacing:0px"><flowRegion
         id="flowRegion1023"><rect
           id="rect1025"
           width="112.5"
           height="43.57143"
           x="9.4642859"
           y="68.535713" /></flowRegion><flowPara
         id="flowPara1027"></flowPara></flowRoot>  </g>
</svg>
